<svg width="1200" height="1000" viewBox="0 0 120 100" fill="none" xmlns="http://www.w3.org/2000/svg">
<rect width="1200" height="1000" fill="#FFF"/>
<rect width="1200" height="1000" fill="#FFF"/>
<path d="M33.028 42.632C33.028 43.592 32.848 44.396 32.488 45.044C32.136 45.692 31.628 46.18 30.964 46.508C30.3 46.836 29.496 47 28.552 47H26.164V38.432H28.804C29.668 38.432 30.416 38.592 31.048 38.912C31.68 39.232 32.168 39.704 32.512 40.328C32.856 40.944 33.028 41.712 33.028 42.632ZM31.888 42.668C31.888 41.908 31.76 41.284 31.504 40.796C31.256 40.308 30.888 39.948 30.4 39.716C29.92 39.476 29.336 39.356 28.648 39.356H27.244V46.076H28.408C29.568 46.076 30.436 45.792 31.012 45.224C31.596 44.648 31.888 43.796 31.888 42.668ZM37.2696 40.448C37.8216 40.448 38.2936 40.568 38.6856 40.808C39.0856 41.048 39.3896 41.388 39.5976 41.828C39.8136 42.26 39.9216 42.768 39.9216 43.352V43.988H35.5176C35.5336 44.716 35.7176 45.272 36.0696 45.656C36.4296 46.032 36.9296 46.22 37.5696 46.22C37.9776 46.22 38.3376 46.184 38.6496 46.112C38.9696 46.032 39.2976 45.92 39.6336 45.776V46.7C39.3056 46.844 38.9816 46.948 38.6616 47.012C38.3416 47.084 37.9616 47.12 37.5216 47.12C36.9136 47.12 36.3736 46.996 35.9016 46.748C35.4376 46.5 35.0736 46.132 34.8096 45.644C34.5536 45.148 34.4256 44.544 34.4256 43.832C34.4256 43.128 34.5416 42.524 34.7736 42.02C35.0136 41.516 35.3456 41.128 35.7696 40.856C36.2016 40.584 36.7016 40.448 37.2696 40.448ZM37.2576 41.312C36.7536 41.312 36.3536 41.476 36.0576 41.804C35.7696 42.124 35.5976 42.572 35.5416 43.148H38.8176C38.8176 42.78 38.7616 42.46 38.6496 42.188C38.5376 41.916 38.3656 41.704 38.1336 41.552C37.9096 41.392 37.6176 41.312 37.2576 41.312ZM42.7407 47L40.3047 40.568H41.4327L42.8007 44.36C42.8647 44.536 42.9327 44.732 43.0047 44.948C43.0767 45.164 43.1407 45.372 43.1967 45.572C43.2527 45.764 43.2927 45.928 43.3167 46.064H43.3647C43.3967 45.928 43.4407 45.76 43.4967 45.56C43.5607 45.36 43.6287 45.152 43.7007 44.936C43.7807 44.72 43.8487 44.528 43.9047 44.36L45.2727 40.568H46.4007L43.9527 47H42.7407ZM65.4404 40.46C66.2244 40.46 66.8044 40.632 67.1804 40.976C67.5564 41.32 67.7444 41.868 67.7444 42.62V47H66.9764L66.7724 46.088H66.7244C66.5404 46.32 66.3484 46.516 66.1484 46.676C65.9564 46.828 65.7324 46.94 65.4764 47.012C65.2284 47.084 64.9244 47.12 64.5644 47.12C64.1804 47.12 63.8324 47.052 63.5204 46.916C63.2164 46.78 62.9764 46.572 62.8004 46.292C62.6244 46.004 62.5364 45.644 62.5364 45.212C62.5364 44.572 62.7884 44.08 63.2924 43.736C63.7964 43.384 64.5724 43.192 65.6204 43.16L66.7124 43.124V42.74C66.7124 42.204 66.5964 41.832 66.3644 41.624C66.1324 41.416 65.8044 41.312 65.3804 41.312C65.0444 41.312 64.7244 41.364 64.4204 41.468C64.1164 41.564 63.8324 41.676 63.5684 41.804L63.2444 41.012C63.5244 40.86 63.8564 40.732 64.2404 40.628C64.6244 40.516 65.0244 40.46 65.4404 40.46ZM65.7524 43.892C64.9524 43.924 64.3964 44.052 64.0844 44.276C63.7804 44.5 63.6284 44.816 63.6284 45.224C63.6284 45.584 63.7364 45.848 63.9524 46.016C64.1764 46.184 64.4604 46.268 64.8044 46.268C65.3484 46.268 65.8004 46.12 66.1604 45.824C66.5204 45.52 66.7004 45.056 66.7004 44.432V43.856L65.7524 43.892ZM73.9189 45.224C73.9189 45.64 73.8149 45.988 73.6069 46.268C73.3989 46.548 73.1029 46.76 72.7189 46.904C72.3349 47.048 71.8789 47.12 71.3509 47.12C70.9029 47.12 70.5149 47.084 70.1869 47.012C69.8669 46.94 69.5829 46.84 69.3349 46.712V45.752C69.5909 45.88 69.8989 46 70.2589 46.112C70.6269 46.216 70.9989 46.268 71.3749 46.268C71.9109 46.268 72.2989 46.184 72.5389 46.016C72.7789 45.84 72.8989 45.608 72.8989 45.32C72.8989 45.16 72.8549 45.016 72.7669 44.888C72.6789 44.76 72.5189 44.632 72.2869 44.504C72.0629 44.376 71.7389 44.232 71.3149 44.072C70.8989 43.912 70.5429 43.752 70.2469 43.592C69.9509 43.432 69.7229 43.24 69.5629 43.016C69.4029 42.792 69.3229 42.504 69.3229 42.152C69.3229 41.608 69.5429 41.188 69.9829 40.892C70.4309 40.596 71.0149 40.448 71.7349 40.448C72.1269 40.448 72.4909 40.488 72.8269 40.568C73.1709 40.64 73.4909 40.744 73.7869 40.88L73.4269 41.72C73.2509 41.64 73.0629 41.572 72.8629 41.516C72.6709 41.452 72.4749 41.404 72.2749 41.372C72.0749 41.332 71.8709 41.312 71.6629 41.312C71.2309 41.312 70.8989 41.384 70.6669 41.528C70.4429 41.664 70.3309 41.852 70.3309 42.092C70.3309 42.268 70.3829 42.42 70.4869 42.548C70.5909 42.668 70.7629 42.788 71.0029 42.908C71.2509 43.02 71.5789 43.156 71.9869 43.316C72.3949 43.468 72.7429 43.624 73.0309 43.784C73.3189 43.944 73.5389 44.14 73.6909 44.372C73.8429 44.596 73.9189 44.88 73.9189 45.224ZM77.6211 46.256C77.7811 46.256 77.9451 46.244 78.1131 46.22C78.2811 46.188 78.4171 46.156 78.5211 46.124V46.928C78.4091 46.984 78.2491 47.028 78.0411 47.06C77.8331 47.1 77.6331 47.12 77.4411 47.12C77.1051 47.12 76.7931 47.064 76.5051 46.952C76.2251 46.832 75.9971 46.628 75.8211 46.34C75.6451 46.052 75.5571 45.648 75.5571 45.128V41.384H74.6451V40.88L75.5691 40.46L75.9891 39.092H76.6131V40.568H78.4731V41.384H76.6131V45.104C76.6131 45.496 76.7051 45.788 76.8891 45.98C77.0811 46.164 77.3251 46.256 77.6211 46.256ZM82.2931 40.448C82.8451 40.448 83.3171 40.568 83.7091 40.808C84.1091 41.048 84.4131 41.388 84.6211 41.828C84.8371 42.26 84.9451 42.768 84.9451 43.352V43.988H80.5411C80.5571 44.716 80.7411 45.272 81.0931 45.656C81.4531 46.032 81.9531 46.22 82.5931 46.22C83.0011 46.22 83.3611 46.184 83.6731 46.112C83.9931 46.032 84.3211 45.92 84.6571 45.776V46.7C84.3291 46.844 84.0051 46.948 83.6851 47.012C83.3651 47.084 82.9851 47.12 82.5451 47.12C81.9371 47.12 81.3971 46.996 80.9251 46.748C80.4611 46.5 80.0971 46.132 79.8331 45.644C79.5771 45.148 79.4491 44.544 79.4491 43.832C79.4491 43.128 79.5651 42.524 79.7971 42.02C80.0371 41.516 80.3691 41.128 80.7931 40.856C81.2251 40.584 81.7251 40.448 82.2931 40.448ZM82.2811 41.312C81.7771 41.312 81.3771 41.476 81.0811 41.804C80.7931 42.124 80.6211 42.572 80.5651 43.148H83.8411C83.8411 42.78 83.7851 42.46 83.6731 42.188C83.5611 41.916 83.3891 41.704 83.1571 41.552C82.9331 41.392 82.6411 41.312 82.2811 41.312ZM89.5825 40.448C89.7025 40.448 89.8305 40.456 89.9665 40.472C90.1105 40.48 90.2345 40.496 90.3385 40.52L90.2065 41.492C90.1025 41.468 89.9865 41.448 89.8585 41.432C89.7385 41.416 89.6225 41.408 89.5105 41.408C89.2625 41.408 89.0265 41.46 88.8025 41.564C88.5785 41.668 88.3785 41.816 88.2025 42.008C88.0265 42.192 87.8865 42.416 87.7825 42.68C87.6865 42.944 87.6385 43.24 87.6385 43.568V47H86.5825V40.568H87.4465L87.5665 41.744H87.6145C87.7505 41.504 87.9145 41.288 88.1065 41.096C88.2985 40.896 88.5185 40.74 88.7665 40.628C89.0145 40.508 89.2865 40.448 89.5825 40.448Z" fill="black"/>
<path d="M49.4737 46.5L53.8038 39L58.134 46.5H49.4737Z" fill="white" stroke="black"/>
<path d="M53.5828 46.525L57.35 40L61.1172 46.525H53.5828Z" fill="white" stroke="black"/>
</svg>
